<?xml version="1.0" standalone="no"?><!DOCTYPE svg PUBLIC "-//W3C//DTD SVG 1.1//EN" "http://www.w3.org/Graphics/SVG/1.1/DTD/svg11.dtd"><svg t="1673406097543" class="icon" viewBox="0 0 1024 1024" version="1.1" xmlns="http://www.w3.org/2000/svg" p-id="1527" xmlns:xlink="http://www.w3.org/1999/xlink" width="200" height="200"><path d="M426.666667 373.333333A32 32 0 0 0 394.666667 341.333333H298.666667a170.666667 170.666667 0 1 0 0 341.333334h96a32 32 0 0 0 0-64H298.666667a106.666667 106.666667 0 0 1 0-213.333334h96a32 32 0 0 0 32-32z m170.666666 277.333334a32 32 0 0 1 32-32H725.333333a106.666667 106.666667 0 0 0 0-213.333334h-96a32 32 0 0 1 0-64H725.333333a170.666667 170.666667 0 0 1 0 341.333334h-96a32 32 0 0 1-32-32z" fill="#333333" p-id="1528"></path><path d="M340.906667 510.378667a32 32 0 0 1 32-32h277.333333a32 32 0 0 1 0 64h-277.333333a32 32 0 0 1-32-32z" fill="#333333" p-id="1529"></path></svg>